<svg width="154" height="25" viewBox="0 0 154 25" fill="none" xmlns="http://www.w3.org/2000/svg">
<path d="M5.15675 5.28V10.88H12.6768V14.432H5.15675V20.352H13.6368V24H0.67675V1.632H13.6368V5.28H5.15675Z" fill="#FF1F00"/>
<path d="M22.188 0.32V24H17.708V0.32H22.188Z" fill="#DC2007"/>
<path d="M64.0953 1.664L57.8553 24H52.5753L48.3833 8.096L43.9993 24L38.7513 24.032L32.7353 1.664H37.5353L41.4713 19.008L46.0153 1.664H51.0073L55.2953 18.912L59.2633 1.664H64.0953ZM83.5005 14.752C83.5005 15.392 83.4578 15.968 83.3725 16.48H70.4125C70.5192 17.76 70.9672 18.7627 71.7565 19.488C72.5458 20.2133 73.5165 20.576 74.6685 20.576C76.3325 20.576 77.5165 19.8613 78.2205 18.432H83.0525C82.5405 20.1387 81.5592 21.5467 80.1085 22.656C78.6578 23.744 76.8765 24.288 74.7645 24.288C73.0578 24.288 71.5218 23.9147 70.1565 23.168C68.8125 22.4 67.7565 21.3227 66.9885 19.936C66.2418 18.5493 65.8685 16.9493 65.8685 15.136C65.8685 13.3013 66.2418 11.6907 66.9885 10.304C67.7352 8.91733 68.7805 7.85067 70.1245 7.104C71.4685 6.35733 73.0152 5.984 74.7645 5.984C76.4498 5.984 77.9538 6.34667 79.2765 7.072C80.6205 7.79733 81.6552 8.832 82.3805 10.176C83.1272 11.4987 83.5005 13.024 83.5005 14.752ZM78.8605 13.472C78.8392 12.32 78.4232 11.4027 77.6125 10.72C76.8018 10.016 75.8098 9.664 74.6365 9.664C73.5272 9.664 72.5885 10.0053 71.8205 10.688C71.0738 11.3493 70.6152 12.2773 70.4445 13.472H78.8605ZM97.2665 24L91.2505 16.448V24H86.7705V0.32H91.2505V13.792L97.2025 6.272H103.027L95.2185 15.168L103.091 24H97.2665ZM104.306 15.072C104.306 13.28 104.658 11.6907 105.362 10.304C106.087 8.91733 107.058 7.85067 108.274 7.104C109.511 6.35733 110.887 5.984 112.402 5.984C113.725 5.984 114.877 6.25067 115.858 6.784C116.861 7.31733 117.661 7.98933 118.258 8.8V6.272H122.77V24H118.258V21.408C117.682 22.24 116.882 22.9333 115.858 23.488C114.855 24.0213 113.693 24.288 112.37 24.288C110.877 24.288 109.511 23.904 108.274 23.136C107.058 22.368 106.087 21.2907 105.362 19.904C104.658 18.496 104.306 16.8853 104.306 15.072ZM118.258 15.136C118.258 14.048 118.045 13.12 117.618 12.352C117.191 11.5627 116.615 10.9653 115.89 10.56C115.165 10.1333 114.386 9.92 113.554 9.92C112.722 9.92 111.954 10.1227 111.25 10.528C110.546 10.9333 109.97 11.5307 109.522 12.32C109.095 13.088 108.882 14.0053 108.882 15.072C108.882 16.1387 109.095 17.0773 109.522 17.888C109.97 18.6773 110.546 19.2853 111.25 19.712C111.975 20.1387 112.743 20.352 113.554 20.352C114.386 20.352 115.165 20.1493 115.89 19.744C116.615 19.3173 117.191 18.72 117.618 17.952C118.045 17.1627 118.258 16.224 118.258 15.136Z" fill="black"/>
<path d="M131.626 0.32V24H127.146V0.32H131.626Z" fill="#602D94"/>
<path d="M134.9 15.072C134.9 13.28 135.252 11.6907 135.956 10.304C136.681 8.91733 137.652 7.85067 138.868 7.104C140.105 6.35733 141.481 5.984 142.996 5.984C144.318 5.984 145.47 6.25067 146.452 6.784C147.454 7.31733 148.254 7.98933 148.852 8.8V6.272H153.364V24H148.852V21.408C148.276 22.24 147.476 22.9333 146.452 23.488C145.449 24.0213 144.286 24.288 142.964 24.288C141.47 24.288 140.105 23.904 138.868 23.136C137.652 22.368 136.681 21.2907 135.956 19.904C135.252 18.496 134.9 16.8853 134.9 15.072ZM148.852 15.136C148.852 14.048 148.638 13.12 148.212 12.352C147.785 11.5627 147.209 10.9653 146.484 10.56C145.758 10.1333 144.98 9.92 144.148 9.92C143.316 9.92 142.548 10.1227 141.844 10.528C141.14 10.9333 140.564 11.5307 140.116 12.32C139.689 13.088 139.476 14.0053 139.476 15.072C139.476 16.1387 139.689 17.0773 140.116 17.888C140.564 18.6773 141.14 19.2853 141.844 19.712C142.569 20.1387 143.337 20.352 144.148 20.352C144.98 20.352 145.758 20.1493 146.484 19.744C147.209 19.3173 147.785 18.72 148.212 17.952C148.638 17.1627 148.852 16.224 148.852 15.136Z" fill="#002ABD"/>
</svg>
