<svg width="255" height="35" viewBox="0 0 255 35" fill="none" xmlns="http://www.w3.org/2000/svg">
<path d="M2.36625 2.955V6.015H5.96625V7.41H2.36625V10.605H6.41625V12H0.65625V1.56H6.41625V2.955H2.36625ZM12.6925 3.6C13.3425 3.6 13.9225 3.735 14.4325 4.005C14.9525 4.275 15.3575 4.675 15.6475 5.205C15.9375 5.735 16.0825 6.375 16.0825 7.125V12H14.3875V7.38C14.3875 6.64 14.2025 6.075 13.8325 5.685C13.4625 5.285 12.9575 5.085 12.3175 5.085C11.6775 5.085 11.1675 5.285 10.7875 5.685C10.4175 6.075 10.2325 6.64 10.2325 7.38V12H8.52246V3.735H10.2325V4.68C10.5125 4.34 10.8675 4.075 11.2975 3.885C11.7375 3.695 12.2025 3.6 12.6925 3.6ZM19.1337 2.64C18.8237 2.64 18.5637 2.535 18.3537 2.325C18.1437 2.115 18.0387 1.855 18.0387 1.545C18.0387 1.235 18.1437 0.974999 18.3537 0.765C18.5637 0.555 18.8237 0.449999 19.1337 0.449999C19.4337 0.449999 19.6887 0.555 19.8987 0.765C20.1087 0.974999 20.2137 1.235 20.2137 1.545C20.2137 1.855 20.1087 2.115 19.8987 2.325C19.6887 2.535 19.4337 2.64 19.1337 2.64ZM19.9737 13.62C19.9737 14.43 19.7687 15.015 19.3587 15.375C18.9587 15.745 18.3737 15.93 17.6037 15.93H16.7187V14.49H17.3037C17.6537 14.49 17.8987 14.42 18.0387 14.28C18.1887 14.15 18.2637 13.93 18.2637 13.62V3.735H19.9737V13.62ZM25.8038 12.135C25.0238 12.135 24.3188 11.96 23.6888 11.61C23.0588 11.25 22.5638 10.75 22.2038 10.11C21.8438 9.46 21.6638 8.71 21.6638 7.86C21.6638 7.02 21.8488 6.275 22.2188 5.625C22.5888 4.975 23.0938 4.475 23.7338 4.125C24.3738 3.775 25.0888 3.6 25.8788 3.6C26.6688 3.6 27.3838 3.775 28.0238 4.125C28.6638 4.475 29.1688 4.975 29.5388 5.625C29.9088 6.275 30.0938 7.02 30.0938 7.86C30.0938 8.7 29.9038 9.445 29.5238 10.095C29.1438 10.745 28.6238 11.25 27.9638 11.61C27.3138 11.96 26.5938 12.135 25.8038 12.135ZM25.8038 10.65C26.2438 10.65 26.6538 10.545 27.0338 10.335C27.4238 10.125 27.7388 9.81 27.9788 9.39C28.2188 8.97 28.3388 8.46 28.3388 7.86C28.3388 7.26 28.2238 6.755 27.9938 6.345C27.7638 5.925 27.4588 5.61 27.0788 5.4C26.6988 5.19 26.2888 5.085 25.8488 5.085C25.4088 5.085 24.9988 5.19 24.6188 5.4C24.2488 5.61 23.9538 5.925 23.7338 6.345C23.5138 6.755 23.4038 7.26 23.4038 7.86C23.4038 8.75 23.6288 9.44 24.0788 9.93C24.5388 10.41 25.1138 10.65 25.8038 10.65ZM39.2242 3.735L34.1542 15.885H32.3842L34.0642 11.865L30.8092 3.735H32.7142L35.0392 10.035L37.4542 3.735H39.2242ZM43.8411 7.83C43.8411 7 44.0111 6.265 44.3511 5.625C44.7011 4.985 45.1711 4.49 45.7611 4.14C46.3611 3.78 47.0211 3.6 47.7411 3.6C48.3911 3.6 48.9561 3.73 49.4361 3.99C49.9261 4.24 50.3161 4.555 50.6061 4.935V3.735H52.3311V12H50.6061V10.77C50.3161 11.16 49.9211 11.485 49.4211 11.745C48.9211 12.005 48.3511 12.135 47.7111 12.135C47.0011 12.135 46.3511 11.955 45.7611 11.595C45.1711 11.225 44.7011 10.715 44.3511 10.065C44.0111 9.405 43.8411 8.66 43.8411 7.83ZM50.6061 7.86C50.6061 7.29 50.4861 6.795 50.2461 6.375C50.0161 5.955 49.7111 5.635 49.3311 5.415C48.9511 5.195 48.5411 5.085 48.1011 5.085C47.6611 5.085 47.2511 5.195 46.8711 5.415C46.4911 5.625 46.1811 5.94 45.9411 6.36C45.7111 6.77 45.5961 7.26 45.5961 7.83C45.5961 8.4 45.7111 8.9 45.9411 9.33C46.1811 9.76 46.4911 10.09 46.8711 10.32C47.2611 10.54 47.6711 10.65 48.1011 10.65C48.5411 10.65 48.9511 10.54 49.3311 10.32C49.7111 10.1 50.0161 9.78 50.2461 9.36C50.4861 8.93 50.6061 8.43 50.6061 7.86ZM69.5736 3.735L67.0086 12H65.2086L63.5436 5.895L61.8786 12H60.0786L57.4986 3.735H59.2386L60.9636 10.38L62.7186 3.735H64.5036L66.1836 10.35L67.8936 3.735H69.5736ZM74.4366 12.135C73.6566 12.135 72.9516 11.96 72.3216 11.61C71.6916 11.25 71.1966 10.75 70.8366 10.11C70.4766 9.46 70.2966 8.71 70.2966 7.86C70.2966 7.02 70.4816 6.275 70.8516 5.625C71.2216 4.975 71.7266 4.475 72.3666 4.125C73.0066 3.775 73.7216 3.6 74.5116 3.6C75.3016 3.6 76.0166 3.775 76.6566 4.125C77.2966 4.475 77.8016 4.975 78.1716 5.625C78.5416 6.275 78.7266 7.02 78.7266 7.86C78.7266 8.7 78.5366 9.445 78.1566 10.095C77.7766 10.745 77.2566 11.25 76.5966 11.61C75.9466 11.96 75.2266 12.135 74.4366 12.135ZM74.4366 10.65C74.8766 10.65 75.2866 10.545 75.6666 10.335C76.0566 10.125 76.3716 9.81 76.6116 9.39C76.8516 8.97 76.9716 8.46 76.9716 7.86C76.9716 7.26 76.8566 6.755 76.6266 6.345C76.3966 5.925 76.0916 5.61 75.7116 5.4C75.3316 5.19 74.9216 5.085 74.4816 5.085C74.0416 5.085 73.6316 5.19 73.2516 5.4C72.8816 5.61 72.5866 5.925 72.3666 6.345C72.1466 6.755 72.0366 7.26 72.0366 7.86C72.0366 8.75 72.2616 9.44 72.7116 9.93C73.1716 10.41 73.7466 10.65 74.4366 10.65ZM84.587 3.6C85.237 3.6 85.817 3.735 86.327 4.005C86.847 4.275 87.252 4.675 87.542 5.205C87.832 5.735 87.977 6.375 87.977 7.125V12H86.282V7.38C86.282 6.64 86.097 6.075 85.727 5.685C85.357 5.285 84.852 5.085 84.212 5.085C83.572 5.085 83.062 5.285 82.682 5.685C82.312 6.075 82.127 6.64 82.127 7.38V12H80.417V3.735H82.127V4.68C82.407 4.34 82.762 4.075 83.192 3.885C83.632 3.695 84.097 3.6 84.587 3.6ZM89.5882 7.83C89.5882 7 89.7582 6.265 90.0982 5.625C90.4482 4.985 90.9182 4.49 91.5082 4.14C92.1082 3.78 92.7732 3.6 93.5032 3.6C94.0432 3.6 94.5732 3.72 95.0932 3.96C95.6232 4.19 96.0432 4.5 96.3532 4.89V0.9H98.0782V12H96.3532V10.755C96.0732 11.155 95.6832 11.485 95.1832 11.745C94.6932 12.005 94.1282 12.135 93.4882 12.135C92.7682 12.135 92.1082 11.955 91.5082 11.595C90.9182 11.225 90.4482 10.715 90.0982 10.065C89.7582 9.405 89.5882 8.66 89.5882 7.83ZM96.3532 7.86C96.3532 7.29 96.2332 6.795 95.9932 6.375C95.7632 5.955 95.4582 5.635 95.0782 5.415C94.6982 5.195 94.2882 5.085 93.8482 5.085C93.4082 5.085 92.9982 5.195 92.6182 5.415C92.2382 5.625 91.9282 5.94 91.6882 6.36C91.4582 6.77 91.3432 7.26 91.3432 7.83C91.3432 8.4 91.4582 8.9 91.6882 9.33C91.9282 9.76 92.2382 10.09 92.6182 10.32C93.0082 10.54 93.4182 10.65 93.8482 10.65C94.2882 10.65 94.6982 10.54 95.0782 10.32C95.4582 10.1 95.7632 9.78 95.9932 9.36C96.2332 8.93 96.3532 8.43 96.3532 7.86ZM107.899 7.665C107.899 7.975 107.879 8.255 107.839 8.505H101.524C101.574 9.165 101.819 9.695 102.259 10.095C102.699 10.495 103.239 10.695 103.879 10.695C104.799 10.695 105.449 10.31 105.829 9.54H107.674C107.424 10.3 106.969 10.925 106.309 11.415C105.659 11.895 104.849 12.135 103.879 12.135C103.089 12.135 102.379 11.96 101.749 11.61C101.129 11.25 100.639 10.75 100.279 10.11C99.9292 9.46 99.7542 8.71 99.7542 7.86C99.7542 7.01 99.9242 6.265 100.264 5.625C100.614 4.975 101.099 4.475 101.719 4.125C102.349 3.775 103.069 3.6 103.879 3.6C104.659 3.6 105.354 3.77 105.964 4.11C106.574 4.45 107.049 4.93 107.389 5.55C107.729 6.16 107.899 6.865 107.899 7.665ZM106.114 7.125C106.104 6.495 105.879 5.99 105.439 5.61C104.999 5.23 104.454 5.04 103.804 5.04C103.214 5.04 102.709 5.23 102.289 5.61C101.869 5.98 101.619 6.485 101.539 7.125H106.114ZM111.292 4.935C111.542 4.515 111.872 4.19 112.282 3.96C112.702 3.72 113.197 3.6 113.767 3.6V5.37H113.332C112.662 5.37 112.152 5.54 111.802 5.88C111.462 6.22 111.292 6.81 111.292 7.65V12H109.582V3.735H111.292V4.935ZM118.804 5.13H117.274V12H115.549V5.13H114.574V3.735H115.549V3.15C115.549 2.2 115.799 1.51 116.299 1.08C116.809 0.64 117.604 0.42 118.684 0.42V1.845C118.164 1.845 117.799 1.945 117.589 2.145C117.379 2.335 117.274 2.67 117.274 3.15V3.735H118.804V5.13ZM127.804 3.735V12H126.094V11.025C125.824 11.365 125.469 11.635 125.029 11.835C124.599 12.025 124.139 12.12 123.649 12.12C122.999 12.12 122.414 11.985 121.894 11.715C121.384 11.445 120.979 11.045 120.679 10.515C120.389 9.985 120.244 9.345 120.244 8.595V3.735H121.939V8.34C121.939 9.08 122.124 9.65 122.494 10.05C122.864 10.44 123.369 10.635 124.009 10.635C124.649 10.635 125.154 10.44 125.524 10.05C125.904 9.65 126.094 9.08 126.094 8.34V3.735H127.804ZM131.771 0.9V12H130.061V0.9H131.771ZM145.487 7.665C145.487 7.975 145.467 8.255 145.427 8.505H139.112C139.162 9.165 139.407 9.695 139.847 10.095C140.287 10.495 140.827 10.695 141.467 10.695C142.387 10.695 143.037 10.31 143.417 9.54H145.262C145.012 10.3 144.557 10.925 143.897 11.415C143.247 11.895 142.437 12.135 141.467 12.135C140.677 12.135 139.967 11.96 139.337 11.61C138.717 11.25 138.227 10.75 137.867 10.11C137.517 9.46 137.342 8.71 137.342 7.86C137.342 7.01 137.512 6.265 137.852 5.625C138.202 4.975 138.687 4.475 139.307 4.125C139.937 3.775 140.657 3.6 141.467 3.6C142.247 3.6 142.942 3.77 143.552 4.11C144.162 4.45 144.637 4.93 144.977 5.55C145.317 6.16 145.487 6.865 145.487 7.665ZM143.702 7.125C143.692 6.495 143.467 5.99 143.027 5.61C142.587 5.23 142.042 5.04 141.392 5.04C140.802 5.04 140.297 5.23 139.877 5.61C139.457 5.98 139.207 6.485 139.127 7.125H143.702ZM150.71 7.815L153.38 12H151.445L149.66 9.195L147.98 12H146.195L148.865 7.935L146.195 3.735H148.13L149.915 6.54L151.595 3.735H153.38L150.71 7.815ZM156.365 4.95C156.655 4.57 157.05 4.25 157.55 3.99C158.05 3.73 158.615 3.6 159.245 3.6C159.965 3.6 160.62 3.78 161.21 4.14C161.81 4.49 162.28 4.985 162.62 5.625C162.96 6.265 163.13 7 163.13 7.83C163.13 8.66 162.96 9.405 162.62 10.065C162.28 10.715 161.81 11.225 161.21 11.595C160.62 11.955 159.965 12.135 159.245 12.135C158.615 12.135 158.055 12.01 157.565 11.76C157.075 11.5 156.675 11.18 156.365 10.8V15.93H154.655V3.735H156.365V4.95ZM161.39 7.83C161.39 7.26 161.27 6.77 161.03 6.36C160.8 5.94 160.49 5.625 160.1 5.415C159.72 5.195 159.31 5.085 158.87 5.085C158.44 5.085 158.03 5.195 157.64 5.415C157.26 5.635 156.95 5.955 156.71 6.375C156.48 6.795 156.365 7.29 156.365 7.86C156.365 8.43 156.48 8.93 156.71 9.36C156.95 9.78 157.26 10.1 157.64 10.32C158.03 10.54 158.44 10.65 158.87 10.65C159.31 10.65 159.72 10.54 160.1 10.32C160.49 10.09 160.8 9.76 161.03 9.33C161.27 8.9 161.39 8.4 161.39 7.83ZM172.396 7.665C172.396 7.975 172.376 8.255 172.336 8.505H166.021C166.071 9.165 166.316 9.695 166.756 10.095C167.196 10.495 167.736 10.695 168.376 10.695C169.296 10.695 169.946 10.31 170.326 9.54H172.171C171.921 10.3 171.466 10.925 170.806 11.415C170.156 11.895 169.346 12.135 168.376 12.135C167.586 12.135 166.876 11.96 166.246 11.61C165.626 11.25 165.136 10.75 164.776 10.11C164.426 9.46 164.251 8.71 164.251 7.86C164.251 7.01 164.421 6.265 164.761 5.625C165.111 4.975 165.596 4.475 166.216 4.125C166.846 3.775 167.566 3.6 168.376 3.6C169.156 3.6 169.851 3.77 170.461 4.11C171.071 4.45 171.546 4.93 171.886 5.55C172.226 6.16 172.396 6.865 172.396 7.665ZM170.611 7.125C170.601 6.495 170.376 5.99 169.936 5.61C169.496 5.23 168.951 5.04 168.301 5.04C167.711 5.04 167.206 5.23 166.786 5.61C166.366 5.98 166.116 6.485 166.036 7.125H170.611ZM175.789 4.935C176.039 4.515 176.369 4.19 176.779 3.96C177.199 3.72 177.694 3.6 178.264 3.6V5.37H177.829C177.159 5.37 176.649 5.54 176.299 5.88C175.959 6.22 175.789 6.81 175.789 7.65V12H174.079V3.735H175.789V4.935ZM180.706 2.64C180.396 2.64 180.136 2.535 179.926 2.325C179.716 2.115 179.611 1.855 179.611 1.545C179.611 1.235 179.716 0.974999 179.926 0.765C180.136 0.555 180.396 0.449999 180.706 0.449999C181.006 0.449999 181.261 0.555 181.471 0.765C181.681 0.974999 181.786 1.235 181.786 1.545C181.786 1.855 181.681 2.115 181.471 2.325C181.261 2.535 181.006 2.64 180.706 2.64ZM181.546 3.735V12H179.836V3.735H181.546ZM191.366 7.665C191.366 7.975 191.346 8.255 191.306 8.505H184.991C185.041 9.165 185.286 9.695 185.726 10.095C186.166 10.495 186.706 10.695 187.346 10.695C188.266 10.695 188.916 10.31 189.296 9.54H191.141C190.891 10.3 190.436 10.925 189.776 11.415C189.126 11.895 188.316 12.135 187.346 12.135C186.556 12.135 185.846 11.96 185.216 11.61C184.596 11.25 184.106 10.75 183.746 10.11C183.396 9.46 183.221 8.71 183.221 7.86C183.221 7.01 183.391 6.265 183.731 5.625C184.081 4.975 184.566 4.475 185.186 4.125C185.816 3.775 186.536 3.6 187.346 3.6C188.126 3.6 188.821 3.77 189.431 4.11C190.041 4.45 190.516 4.93 190.856 5.55C191.196 6.16 191.366 6.865 191.366 7.665ZM189.581 7.125C189.571 6.495 189.346 5.99 188.906 5.61C188.466 5.23 187.921 5.04 187.271 5.04C186.681 5.04 186.176 5.23 185.756 5.61C185.336 5.98 185.086 6.485 185.006 7.125H189.581ZM197.219 3.6C197.869 3.6 198.449 3.735 198.959 4.005C199.479 4.275 199.884 4.675 200.174 5.205C200.464 5.735 200.609 6.375 200.609 7.125V12H198.914V7.38C198.914 6.64 198.729 6.075 198.359 5.685C197.989 5.285 197.484 5.085 196.844 5.085C196.204 5.085 195.694 5.285 195.314 5.685C194.944 6.075 194.759 6.64 194.759 7.38V12H193.049V3.735H194.759V4.68C195.039 4.34 195.394 4.075 195.824 3.885C196.264 3.695 196.729 3.6 197.219 3.6ZM202.22 7.86C202.22 7.01 202.39 6.265 202.73 5.625C203.08 4.975 203.56 4.475 204.17 4.125C204.78 3.775 205.48 3.6 206.27 3.6C207.27 3.6 208.095 3.84 208.745 4.32C209.405 4.79 209.85 5.465 210.08 6.345H208.235C208.085 5.935 207.845 5.615 207.515 5.385C207.185 5.155 206.77 5.04 206.27 5.04C205.57 5.04 205.01 5.29 204.59 5.79C204.18 6.28 203.975 6.97 203.975 7.86C203.975 8.75 204.18 9.445 204.59 9.945C205.01 10.445 205.57 10.695 206.27 10.695C207.26 10.695 207.915 10.26 208.235 9.39H210.08C209.84 10.23 209.39 10.9 208.73 11.4C208.07 11.89 207.25 12.135 206.27 12.135C205.48 12.135 204.78 11.96 204.17 11.61C203.56 11.25 203.08 10.75 202.73 10.11C202.39 9.46 202.22 8.71 202.22 7.86ZM219.359 7.665C219.359 7.975 219.339 8.255 219.299 8.505H212.984C213.034 9.165 213.279 9.695 213.719 10.095C214.159 10.495 214.699 10.695 215.339 10.695C216.259 10.695 216.909 10.31 217.289 9.54H219.134C218.884 10.3 218.429 10.925 217.769 11.415C217.119 11.895 216.309 12.135 215.339 12.135C214.549 12.135 213.839 11.96 213.209 11.61C212.589 11.25 212.099 10.75 211.739 10.11C211.389 9.46 211.214 8.71 211.214 7.86C211.214 7.01 211.384 6.265 211.724 5.625C212.074 4.975 212.559 4.475 213.179 4.125C213.809 3.775 214.529 3.6 215.339 3.6C216.119 3.6 216.814 3.77 217.424 4.11C218.034 4.45 218.509 4.93 218.849 5.55C219.189 6.16 219.359 6.865 219.359 7.665ZM217.574 7.125C217.564 6.495 217.339 5.99 216.899 5.61C216.459 5.23 215.914 5.04 215.264 5.04C214.674 5.04 214.169 5.23 213.749 5.61C213.329 5.98 213.079 6.485 212.999 7.125H217.574ZM236.038 3.735L233.473 12H231.673L230.008 5.895L228.343 12H226.543L223.963 3.735H225.703L227.428 10.38L229.183 3.735H230.968L232.648 10.35L234.358 3.735H236.038ZM238.186 2.64C237.876 2.64 237.616 2.535 237.406 2.325C237.196 2.115 237.091 1.855 237.091 1.545C237.091 1.235 237.196 0.974999 237.406 0.765C237.616 0.555 237.876 0.449999 238.186 0.449999C238.486 0.449999 238.741 0.555 238.951 0.765C239.161 0.974999 239.266 1.235 239.266 1.545C239.266 1.855 239.161 2.115 238.951 2.325C238.741 2.535 238.486 2.64 238.186 2.64ZM239.026 3.735V12H237.316V3.735H239.026ZM243.266 5.13V9.705C243.266 10.015 243.336 10.24 243.476 10.38C243.626 10.51 243.876 10.575 244.226 10.575H245.276V12H243.926C243.156 12 242.566 11.82 242.156 11.46C241.746 11.1 241.541 10.515 241.541 9.705V5.13H240.566V3.735H241.541V1.68H243.266V3.735H245.276V5.13H243.266ZM251.128 3.6C251.758 3.6 252.318 3.735 252.808 4.005C253.308 4.275 253.698 4.675 253.978 5.205C254.268 5.735 254.413 6.375 254.413 7.125V12H252.718V7.38C252.718 6.64 252.533 6.075 252.163 5.685C251.793 5.285 251.288 5.085 250.648 5.085C250.008 5.085 249.498 5.285 249.118 5.685C248.748 6.075 248.563 6.64 248.563 7.38V12H246.853V0.9H248.563V4.695C248.853 4.345 249.218 4.075 249.658 3.885C250.108 3.695 250.598 3.6 251.128 3.6ZM74.5245 31.135C73.7445 31.135 73.0395 30.96 72.4095 30.61C71.7795 30.25 71.2845 29.75 70.9245 29.11C70.5645 28.46 70.3845 27.71 70.3845 26.86C70.3845 26.02 70.5695 25.275 70.9395 24.625C71.3095 23.975 71.8145 23.475 72.4545 23.125C73.0945 22.775 73.8095 22.6 74.5995 22.6C75.3895 22.6 76.1045 22.775 76.7445 23.125C77.3845 23.475 77.8895 23.975 78.2595 24.625C78.6295 25.275 78.8145 26.02 78.8145 26.86C78.8145 27.7 78.6245 28.445 78.2445 29.095C77.8645 29.745 77.3445 30.25 76.6845 30.61C76.0345 30.96 75.3145 31.135 74.5245 31.135ZM74.5245 29.65C74.9645 29.65 75.3745 29.545 75.7545 29.335C76.1445 29.125 76.4595 28.81 76.6995 28.39C76.9395 27.97 77.0595 27.46 77.0595 26.86C77.0595 26.26 76.9445 25.755 76.7145 25.345C76.4845 24.925 76.1795 24.61 75.7995 24.4C75.4195 24.19 75.0095 24.085 74.5695 24.085C74.1295 24.085 73.7195 24.19 73.3395 24.4C72.9695 24.61 72.6745 24.925 72.4545 25.345C72.2345 25.755 72.1245 26.26 72.1245 26.86C72.1245 27.75 72.3495 28.44 72.7995 28.93C73.2595 29.41 73.8345 29.65 74.5245 29.65ZM87.9899 22.735V31H86.2799V30.025C86.0099 30.365 85.6549 30.635 85.2149 30.835C84.7849 31.025 84.3249 31.12 83.8349 31.12C83.1849 31.12 82.5999 30.985 82.0799 30.715C81.5699 30.445 81.1649 30.045 80.8649 29.515C80.5749 28.985 80.4299 28.345 80.4299 27.595V22.735H82.1249V27.34C82.1249 28.08 82.3099 28.65 82.6799 29.05C83.0499 29.44 83.5549 29.635 84.1949 29.635C84.8349 29.635 85.3399 29.44 85.7099 29.05C86.0899 28.65 86.2799 28.08 86.2799 27.34V22.735H87.9899ZM91.9561 23.935C92.2061 23.515 92.5361 23.19 92.9461 22.96C93.3661 22.72 93.8611 22.6 94.4311 22.6V24.37H93.9961C93.3261 24.37 92.8161 24.54 92.4661 24.88C92.1261 25.22 91.9561 25.81 91.9561 26.65V31H90.2461V22.735H91.9561V23.935ZM99.3294 26.83C99.3294 26 99.4994 25.265 99.8394 24.625C100.189 23.985 100.659 23.49 101.249 23.14C101.849 22.78 102.509 22.6 103.229 22.6C103.879 22.6 104.444 22.73 104.924 22.99C105.414 23.24 105.804 23.555 106.094 23.935V22.735H107.819V31H106.094V29.77C105.804 30.16 105.409 30.485 104.909 30.745C104.409 31.005 103.839 31.135 103.199 31.135C102.489 31.135 101.839 30.955 101.249 30.595C100.659 30.225 100.189 29.715 99.8394 29.065C99.4994 28.405 99.3294 27.66 99.3294 26.83ZM106.094 26.86C106.094 26.29 105.974 25.795 105.734 25.375C105.504 24.955 105.199 24.635 104.819 24.415C104.439 24.195 104.029 24.085 103.589 24.085C103.149 24.085 102.739 24.195 102.359 24.415C101.979 24.625 101.669 24.94 101.429 25.36C101.199 25.77 101.084 26.26 101.084 26.83C101.084 27.4 101.199 27.9 101.429 28.33C101.669 28.76 101.979 29.09 102.359 29.32C102.749 29.54 103.159 29.65 103.589 29.65C104.029 29.65 104.439 29.54 104.819 29.32C105.199 29.1 105.504 28.78 105.734 28.36C105.974 27.93 106.094 27.43 106.094 26.86ZM111.775 23.95C112.065 23.57 112.46 23.25 112.96 22.99C113.46 22.73 114.025 22.6 114.655 22.6C115.375 22.6 116.03 22.78 116.62 23.14C117.22 23.49 117.69 23.985 118.03 24.625C118.37 25.265 118.54 26 118.54 26.83C118.54 27.66 118.37 28.405 118.03 29.065C117.69 29.715 117.22 30.225 116.62 30.595C116.03 30.955 115.375 31.135 114.655 31.135C114.025 31.135 113.465 31.01 112.975 30.76C112.485 30.5 112.085 30.18 111.775 29.8V34.93H110.065V22.735H111.775V23.95ZM116.8 26.83C116.8 26.26 116.68 25.77 116.44 25.36C116.21 24.94 115.9 24.625 115.51 24.415C115.13 24.195 114.72 24.085 114.28 24.085C113.85 24.085 113.44 24.195 113.05 24.415C112.67 24.635 112.36 24.955 112.12 25.375C111.89 25.795 111.775 26.29 111.775 26.86C111.775 27.43 111.89 27.93 112.12 28.36C112.36 28.78 112.67 29.1 113.05 29.32C113.44 29.54 113.85 29.65 114.28 29.65C114.72 29.65 115.13 29.54 115.51 29.32C115.9 29.09 116.21 28.76 116.44 28.33C116.68 27.9 116.8 27.4 116.8 26.83ZM121.941 23.95C122.231 23.57 122.626 23.25 123.126 22.99C123.626 22.73 124.191 22.6 124.821 22.6C125.541 22.6 126.196 22.78 126.786 23.14C127.386 23.49 127.856 23.985 128.196 24.625C128.536 25.265 128.706 26 128.706 26.83C128.706 27.66 128.536 28.405 128.196 29.065C127.856 29.715 127.386 30.225 126.786 30.595C126.196 30.955 125.541 31.135 124.821 31.135C124.191 31.135 123.631 31.01 123.141 30.76C122.651 30.5 122.251 30.18 121.941 29.8V34.93H120.231V22.735H121.941V23.95ZM126.966 26.83C126.966 26.26 126.846 25.77 126.606 25.36C126.376 24.94 126.066 24.625 125.676 24.415C125.296 24.195 124.886 24.085 124.446 24.085C124.016 24.085 123.606 24.195 123.216 24.415C122.836 24.635 122.526 24.955 122.286 25.375C122.056 25.795 121.941 26.29 121.941 26.86C121.941 27.43 122.056 27.93 122.286 28.36C122.526 28.78 122.836 29.1 123.216 29.32C123.606 29.54 124.016 29.65 124.446 29.65C124.886 29.65 125.296 29.54 125.676 29.32C126.066 29.09 126.376 28.76 126.606 28.33C126.846 27.9 126.966 27.4 126.966 26.83ZM132.107 19.9V31H130.397V19.9H132.107ZM135.223 21.64C134.913 21.64 134.653 21.535 134.443 21.325C134.233 21.115 134.128 20.855 134.128 20.545C134.128 20.235 134.233 19.975 134.443 19.765C134.653 19.555 134.913 19.45 135.223 19.45C135.523 19.45 135.778 19.555 135.988 19.765C136.198 19.975 136.303 20.235 136.303 20.545C136.303 20.855 136.198 21.115 135.988 21.325C135.778 21.535 135.523 21.64 135.223 21.64ZM136.063 22.735V31H134.353V22.735H136.063ZM137.738 26.86C137.738 26.01 137.908 25.265 138.248 24.625C138.598 23.975 139.078 23.475 139.688 23.125C140.298 22.775 140.998 22.6 141.788 22.6C142.788 22.6 143.613 22.84 144.263 23.32C144.923 23.79 145.368 24.465 145.598 25.345H143.753C143.603 24.935 143.363 24.615 143.033 24.385C142.703 24.155 142.288 24.04 141.788 24.04C141.088 24.04 140.528 24.29 140.108 24.79C139.698 25.28 139.493 25.97 139.493 26.86C139.493 27.75 139.698 28.445 140.108 28.945C140.528 29.445 141.088 29.695 141.788 29.695C142.778 29.695 143.433 29.26 143.753 28.39H145.598C145.358 29.23 144.908 29.9 144.248 30.4C143.588 30.89 142.768 31.135 141.788 31.135C140.998 31.135 140.298 30.96 139.688 30.61C139.078 30.25 138.598 29.75 138.248 29.11C137.908 28.46 137.738 27.71 137.738 26.86ZM146.732 26.83C146.732 26 146.902 25.265 147.242 24.625C147.592 23.985 148.062 23.49 148.652 23.14C149.252 22.78 149.912 22.6 150.632 22.6C151.282 22.6 151.847 22.73 152.327 22.99C152.817 23.24 153.207 23.555 153.497 23.935V22.735H155.222V31H153.497V29.77C153.207 30.16 152.812 30.485 152.312 30.745C151.812 31.005 151.242 31.135 150.602 31.135C149.892 31.135 149.242 30.955 148.652 30.595C148.062 30.225 147.592 29.715 147.242 29.065C146.902 28.405 146.732 27.66 146.732 26.83ZM153.497 26.86C153.497 26.29 153.377 25.795 153.137 25.375C152.907 24.955 152.602 24.635 152.222 24.415C151.842 24.195 151.432 24.085 150.992 24.085C150.552 24.085 150.142 24.195 149.762 24.415C149.382 24.625 149.072 24.94 148.832 25.36C148.602 25.77 148.487 26.26 148.487 26.83C148.487 27.4 148.602 27.9 148.832 28.33C149.072 28.76 149.382 29.09 149.762 29.32C150.152 29.54 150.562 29.65 150.992 29.65C151.432 29.65 151.842 29.54 152.222 29.32C152.602 29.1 152.907 28.78 153.137 28.36C153.377 27.93 153.497 27.43 153.497 26.86ZM159.463 24.13V28.705C159.463 29.015 159.533 29.24 159.673 29.38C159.823 29.51 160.073 29.575 160.423 29.575H161.473V31H160.123C159.353 31 158.763 30.82 158.353 30.46C157.943 30.1 157.738 29.515 157.738 28.705V24.13H156.763V22.735H157.738V20.68H159.463V22.735H161.473V24.13H159.463ZM163.919 21.64C163.609 21.64 163.349 21.535 163.139 21.325C162.929 21.115 162.824 20.855 162.824 20.545C162.824 20.235 162.929 19.975 163.139 19.765C163.349 19.555 163.609 19.45 163.919 19.45C164.219 19.45 164.474 19.555 164.684 19.765C164.894 19.975 164.999 20.235 164.999 20.545C164.999 20.855 164.894 21.115 164.684 21.325C164.474 21.535 164.219 21.64 163.919 21.64ZM164.759 22.735V31H163.049V22.735H164.759ZM170.589 31.135C169.809 31.135 169.104 30.96 168.474 30.61C167.844 30.25 167.349 29.75 166.989 29.11C166.629 28.46 166.449 27.71 166.449 26.86C166.449 26.02 166.634 25.275 167.004 24.625C167.374 23.975 167.879 23.475 168.519 23.125C169.159 22.775 169.874 22.6 170.664 22.6C171.454 22.6 172.169 22.775 172.809 23.125C173.449 23.475 173.954 23.975 174.324 24.625C174.694 25.275 174.879 26.02 174.879 26.86C174.879 27.7 174.689 28.445 174.309 29.095C173.929 29.745 173.409 30.25 172.749 30.61C172.099 30.96 171.379 31.135 170.589 31.135ZM170.589 29.65C171.029 29.65 171.439 29.545 171.819 29.335C172.209 29.125 172.524 28.81 172.764 28.39C173.004 27.97 173.124 27.46 173.124 26.86C173.124 26.26 173.009 25.755 172.779 25.345C172.549 24.925 172.244 24.61 171.864 24.4C171.484 24.19 171.074 24.085 170.634 24.085C170.194 24.085 169.784 24.19 169.404 24.4C169.034 24.61 168.739 24.925 168.519 25.345C168.299 25.755 168.189 26.26 168.189 26.86C168.189 27.75 168.414 28.44 168.864 28.93C169.324 29.41 169.899 29.65 170.589 29.65ZM180.739 22.6C181.389 22.6 181.969 22.735 182.479 23.005C182.999 23.275 183.404 23.675 183.694 24.205C183.984 24.735 184.129 25.375 184.129 26.125V31H182.434V26.38C182.434 25.64 182.249 25.075 181.879 24.685C181.509 24.285 181.004 24.085 180.364 24.085C179.724 24.085 179.214 24.285 178.834 24.685C178.464 25.075 178.279 25.64 178.279 26.38V31H176.569V22.735H178.279V23.68C178.559 23.34 178.914 23.075 179.344 22.885C179.784 22.695 180.249 22.6 180.739 22.6Z" fill="black"/>
</svg>
