<svg width="87" height="26" viewBox="0 0 87 26" fill="none" xmlns="http://www.w3.org/2000/svg">
<g filter="url(#filter0_d_243_659)">
<g clip-path="url(#clip0_243_659)">
<rect x="3" y="3" width="81" height="20" rx="6" fill="#FFC700" fill-opacity="0.2" shape-rendering="crispEdges"/>
<path d="M15.192 10.44V11.184H13.712V16H12.8V11.184H11.312V10.44H15.192ZM18.0276 16.072C17.6116 16.072 17.2356 15.9787 16.8996 15.792C16.5636 15.6 16.2996 15.3333 16.1076 14.992C15.9156 14.6453 15.8196 14.2453 15.8196 13.792C15.8196 13.344 15.9183 12.9467 16.1156 12.6C16.313 12.2533 16.5823 11.9867 16.9236 11.8C17.265 11.6133 17.6463 11.52 18.0676 11.52C18.489 11.52 18.8703 11.6133 19.2116 11.8C19.553 11.9867 19.8223 12.2533 20.0196 12.6C20.217 12.9467 20.3156 13.344 20.3156 13.792C20.3156 14.24 20.2143 14.6373 20.0116 14.984C19.809 15.3307 19.5316 15.6 19.1796 15.792C18.833 15.9787 18.449 16.072 18.0276 16.072ZM18.0276 15.28C18.2623 15.28 18.481 15.224 18.6836 15.112C18.8916 15 19.0596 14.832 19.1876 14.608C19.3156 14.384 19.3796 14.112 19.3796 13.792C19.3796 13.472 19.3183 13.2027 19.1956 12.984C19.073 12.76 18.9103 12.592 18.7076 12.48C18.505 12.368 18.2863 12.312 18.0516 12.312C17.817 12.312 17.5983 12.368 17.3956 12.48C17.1983 12.592 17.041 12.76 16.9236 12.984C16.8063 13.2027 16.7476 13.472 16.7476 13.792C16.7476 14.2667 16.8676 14.6347 17.1076 14.896C17.353 15.152 17.6596 15.28 18.0276 15.28ZM22.1292 12.24C22.2839 12.0373 22.4945 11.8667 22.7612 11.728C23.0279 11.5893 23.3292 11.52 23.6652 11.52C24.0492 11.52 24.3985 11.616 24.7132 11.808C25.0332 11.9947 25.2839 12.2587 25.4652 12.6C25.6465 12.9413 25.7372 13.3333 25.7372 13.776C25.7372 14.2187 25.6465 14.616 25.4652 14.968C25.2839 15.3147 25.0332 15.5867 24.7132 15.784C24.3985 15.976 24.0492 16.072 23.6652 16.072C23.3292 16.072 23.0305 16.0053 22.7692 15.872C22.5079 15.7333 22.2945 15.5627 22.1292 15.36V18.096H21.2172V11.592H22.1292V12.24ZM24.8092 13.776C24.8092 13.472 24.7452 13.2107 24.6172 12.992C24.4945 12.768 24.3292 12.6 24.1212 12.488C23.9185 12.3707 23.6999 12.312 23.4652 12.312C23.2359 12.312 23.0172 12.3707 22.8092 12.488C22.6065 12.6053 22.4412 12.776 22.3132 13C22.1905 13.224 22.1292 13.488 22.1292 13.792C22.1292 14.096 22.1905 14.3627 22.3132 14.592C22.4412 14.816 22.6065 14.9867 22.8092 15.104C23.0172 15.2213 23.2359 15.28 23.4652 15.28C23.6999 15.28 23.9185 15.2213 24.1212 15.104C24.3292 14.9813 24.4945 14.8053 24.6172 14.576C24.7452 14.3467 24.8092 14.08 24.8092 13.776ZM30.5492 16.056C30.1759 16.056 29.8399 15.992 29.5412 15.864C29.2425 15.7307 29.0079 15.544 28.8372 15.304C28.6665 15.064 28.5812 14.784 28.5812 14.464H29.5572C29.5785 14.704 29.6719 14.9013 29.8372 15.056C30.0079 15.2107 30.2452 15.288 30.5492 15.288C30.8639 15.288 31.1092 15.2133 31.2852 15.064C31.4612 14.9093 31.5492 14.712 31.5492 14.472C31.5492 14.2853 31.4932 14.1333 31.3812 14.016C31.2745 13.8987 31.1385 13.808 30.9732 13.744C30.8132 13.68 30.5892 13.6107 30.3012 13.536C29.9385 13.44 29.6425 13.344 29.4132 13.248C29.1892 13.1467 28.9972 12.992 28.8372 12.784C28.6772 12.576 28.5972 12.2987 28.5972 11.952C28.5972 11.632 28.6772 11.352 28.8372 11.112C28.9972 10.872 29.2212 10.688 29.5092 10.56C29.7972 10.432 30.1305 10.368 30.5092 10.368C31.0479 10.368 31.4879 10.504 31.8292 10.776C32.1759 11.0427 32.3679 11.4107 32.4052 11.88H31.3972C31.3812 11.6773 31.2852 11.504 31.1092 11.36C30.9332 11.216 30.7012 11.144 30.4132 11.144C30.1519 11.144 29.9385 11.2107 29.7732 11.344C29.6079 11.4773 29.5252 11.6693 29.5252 11.92C29.5252 12.0907 29.5759 12.232 29.6772 12.344C29.7839 12.4507 29.9172 12.536 30.0772 12.6C30.2372 12.664 30.4559 12.7333 30.7332 12.808C31.1012 12.9093 31.3999 13.0107 31.6292 13.112C31.8639 13.2133 32.0612 13.3707 32.2212 13.584C32.3865 13.792 32.4692 14.072 32.4692 14.424C32.4692 14.7067 32.3919 14.9733 32.2372 15.224C32.0879 15.4747 31.8665 15.6773 31.5732 15.832C31.2852 15.9813 30.9439 16.056 30.5492 16.056ZM37.5853 13.688C37.5853 13.8533 37.5746 14.0027 37.5533 14.136H34.1853C34.212 14.488 34.3426 14.7707 34.5773 14.984C34.812 15.1973 35.1 15.304 35.4413 15.304C35.932 15.304 36.2786 15.0987 36.4813 14.688H37.4653C37.332 15.0933 37.0893 15.4267 36.7373 15.688C36.3906 15.944 35.9586 16.072 35.4413 16.072C35.02 16.072 34.6413 15.9787 34.3053 15.792C33.9746 15.6 33.7133 15.3333 33.5213 14.992C33.3346 14.6453 33.2413 14.2453 33.2413 13.792C33.2413 13.3387 33.332 12.9413 33.5133 12.6C33.7 12.2533 33.9586 11.9867 34.2893 11.8C34.6253 11.6133 35.0093 11.52 35.4413 11.52C35.8573 11.52 36.228 11.6107 36.5533 11.792C36.8786 11.9733 37.132 12.2293 37.3133 12.56C37.4946 12.8853 37.5853 13.2613 37.5853 13.688ZM36.6333 13.4C36.628 13.064 36.508 12.7947 36.2733 12.592C36.0386 12.3893 35.748 12.288 35.4013 12.288C35.0866 12.288 34.8173 12.3893 34.5933 12.592C34.3693 12.7893 34.236 13.0587 34.1933 13.4H36.6333ZM39.3948 10.08V16H38.4828V10.08H39.3948ZM41.5042 10.08V16H40.5922V10.08H41.5042ZM46.7416 13.688C46.7416 13.8533 46.7309 14.0027 46.7096 14.136H43.3416C43.3682 14.488 43.4989 14.7707 43.7336 14.984C43.9682 15.1973 44.2562 15.304 44.5976 15.304C45.0882 15.304 45.4349 15.0987 45.6376 14.688H46.6216C46.4882 15.0933 46.2456 15.4267 45.8936 15.688C45.5469 15.944 45.1149 16.072 44.5976 16.072C44.1762 16.072 43.7976 15.9787 43.4616 15.792C43.1309 15.6 42.8696 15.3333 42.6776 14.992C42.4909 14.6453 42.3976 14.2453 42.3976 13.792C42.3976 13.3387 42.4882 12.9413 42.6696 12.6C42.8562 12.2533 43.1149 11.9867 43.4456 11.8C43.7816 11.6133 44.1656 11.52 44.5976 11.52C45.0136 11.52 45.3842 11.6107 45.7096 11.792C46.0349 11.9733 46.2882 12.2293 46.4696 12.56C46.6509 12.8853 46.7416 13.2613 46.7416 13.688ZM45.7896 13.4C45.7842 13.064 45.6642 12.7947 45.4296 12.592C45.1949 12.3893 44.9042 12.288 44.5576 12.288C44.2429 12.288 43.9736 12.3893 43.7496 12.592C43.5256 12.7893 43.3922 13.0587 43.3496 13.4H45.7896ZM48.5511 12.232C48.6844 12.008 48.8604 11.8347 49.0791 11.712C49.3031 11.584 49.5671 11.52 49.8711 11.52V12.464H49.6391C49.2817 12.464 49.0097 12.5547 48.8231 12.736C48.6417 12.9173 48.5511 13.232 48.5511 13.68V16H47.6391V11.592H48.5511V12.232Z" fill="black"/>
<path d="M56 13C56 13.4333 56.0875 13.8438 56.2625 14.2315C56.4375 14.6192 56.6875 14.9587 57.0125 15.25C57.0042 15.2083 57 15.1708 57 15.1375V15.025C57 14.7583 57.05 14.5083 57.15 14.275C57.25 14.0417 57.3958 13.8292 57.5875 13.6375L59 12.25L60.4125 13.6375C60.6042 13.8292 60.75 14.0417 60.85 14.275C60.95 14.5083 61 14.7583 61 15.025V15.1375C61 15.1708 60.9958 15.2083 60.9875 15.25C61.3125 14.9583 61.5625 14.6187 61.7375 14.231C61.9125 13.8433 62 13.433 62 13C62 12.5833 61.9228 12.1895 61.7685 11.8185C61.6142 11.4475 61.3913 11.1163 61.1 10.825C60.9333 10.9333 60.7583 11.0147 60.575 11.069C60.3917 11.1233 60.2042 11.1503 60.0125 11.15C59.4958 11.15 59.0478 10.9792 58.6685 10.6375C58.2892 10.2958 58.0705 9.875 58.0125 9.375C57.6875 9.65 57.4 9.9355 57.15 10.2315C56.9 10.5275 56.6895 10.8275 56.5185 11.1315C56.3478 11.4355 56.2188 11.7458 56.1315 12.0625C56.0442 12.3792 56.0003 12.6917 56 13ZM59 13.65L58.2875 14.35C58.1958 14.4417 58.125 14.5458 58.075 14.6625C58.025 14.7792 58 14.9 58 15.025C58 15.2917 58.0978 15.5208 58.2935 15.7125C58.4892 15.9042 58.7247 16 59 16C59.275 16 59.5103 15.9042 59.706 15.7125C59.9017 15.5208 59.9997 15.2917 60 15.025C60 14.8917 59.975 14.7687 59.925 14.656C59.875 14.5433 59.8042 14.4413 59.7125 14.35L59 13.65ZM59 7.5V9.15C59 9.43333 59.098 9.67083 59.294 9.8625C59.49 10.0542 59.7295 10.15 60.0125 10.15C60.1625 10.15 60.3022 10.1187 60.4315 10.056C60.5608 9.99333 60.6753 9.89967 60.775 9.775L61 9.5C61.6167 9.85 62.1042 10.3375 62.4625 10.9625C62.8208 11.5875 63 12.2667 63 13C63 14.1167 62.6125 15.0625 61.8375 15.8375C61.0625 16.6125 60.1167 17 59 17C57.8833 17 56.9375 16.6125 56.1625 15.8375C55.3875 15.0625 55 14.1167 55 13C55 11.925 55.3603 10.9042 56.081 9.9375C56.8017 8.97083 57.7747 8.15833 59 7.5Z" fill="black"/>
<path d="M73.264 12.336L72.968 13.72H74.024V14.52H72.8L72.48 16H71.608L71.928 14.52H70.36L70.04 16H69.168L69.488 14.52H68.248V13.72H69.656L69.952 12.336H68.72V11.536H70.12L70.432 10.08H71.304L70.992 11.536H72.56L72.872 10.08H73.744L73.432 11.536H74.496V12.336H73.264ZM72.392 12.336H70.824L70.528 13.72H72.096L72.392 12.336ZM75.3366 11V10.168H77.0006V16H76.0806V11H75.3366Z" fill="black"/>
</g>
</g>
<defs>
<filter id="filter0_d_243_659" x="0" y="0" width="87" height="26" filterUnits="userSpaceOnUse" color-interpolation-filters="sRGB">
<feFlood flood-opacity="0" result="BackgroundImageFix"/>
<feColorMatrix in="SourceAlpha" type="matrix" values="0 0 0 0 0 0 0 0 0 0 0 0 0 0 0 0 0 0 127 0" result="hardAlpha"/>
<feMorphology radius="1" operator="erode" in="SourceAlpha" result="effect1_dropShadow_243_659"/>
<feOffset/>
<feGaussianBlur stdDeviation="2"/>
<feComposite in2="hardAlpha" operator="out"/>
<feColorMatrix type="matrix" values="0 0 0 0 0 0 0 0 0 0 0 0 0 0 0 0 0 0 0.2 0"/>
<feBlend mode="normal" in2="BackgroundImageFix" result="effect1_dropShadow_243_659"/>
<feBlend mode="normal" in="SourceGraphic" in2="effect1_dropShadow_243_659" result="shape"/>
</filter>
<clipPath id="clip0_243_659">
<rect x="3" y="3" width="81" height="20" rx="6" fill="white"/>
</clipPath>
</defs>
</svg>
